HIERARCHY
ROOT Pelvis
{
	OFFSET 0.000000 0.941512 0.000000
	CHANNELS 6 Xposition Yposition Zposition Zrotation Yrotation Xrotation 
	JOINT Pelvis_L_Hip
	{
		OFFSET 0.000000 0.000000 0.000000
		CHANNELS 3 Zrotation Yrotation Xrotation
		JOINT L_Hip
		{
			OFFSET 0.062321 -0.080322 -0.016990
			CHANNELS 3 Zrotation Yrotation Xrotation
			JOINT L_Knee
			{
				OFFSET 0.093051 -0.381305 -0.029784
				CHANNELS 3 Zrotation Yrotation Xrotation
				JOINT L_Ankle
				{
					OFFSET -0.010371 -0.431000 -0.033614
					CHANNELS 3 Zrotation Yrotation Xrotation
					End Site #name: L_Foot
					{
						OFFSET 0.069299 -0.038670 0.119418
					}
				}
			}
		}
	}
	JOINT Pelvis_R_Hip
	{
		OFFSET 0.000000 0.000000 0.000000
		CHANNELS 3 Zrotation Yrotation Xrotation
		JOINT R_Hip
		{
			OFFSET -0.055334 -0.094904 -0.002373
			CHANNELS 3 Zrotation Yrotation Xrotation
			JOINT R_Knee
			{
				OFFSET -0.064207 -0.384370 -0.019592
				CHANNELS 3 Zrotation Yrotation Xrotation
				JOINT R_Ankle
				{
					OFFSET 0.025418 -0.419734 -0.065953
					CHANNELS 3 Zrotation Yrotation Xrotation
					End Site #name: R_Foot
					{
						OFFSET -0.057233 -0.039888 0.132134
					}
				}
			}
		}
	}
	JOINT Pelvis_Spine1
	{
		OFFSET 0.000000 0.000000 0.000000
		CHANNELS 3 Zrotation Yrotation Xrotation
		JOINT Spine1
		{
			OFFSET -0.005562 0.124093 -0.043360
			CHANNELS 3 Zrotation Yrotation Xrotation
			JOINT Spine2
			{
				OFFSET 0.012244 0.139499 0.029894
				CHANNELS 3 Zrotation Yrotation Xrotation
				JOINT Spine3
				{
					OFFSET -0.002556 0.056561 0.009225
					CHANNELS 3 Zrotation Yrotation Xrotation
					JOINT Spine3_Neck
					{
						OFFSET 0.000000 0.000000 0.000000
						CHANNELS 3 Zrotation Yrotation Xrotation
						JOINT Neck
						{
							OFFSET -0.005205 0.217920 -0.024551
							CHANNELS 3 Zrotation Yrotation Xrotation
							End Site #name: Head
							{
								OFFSET 0.002365 0.091850 0.046637
							}
						}
					}
					JOINT Spine3_L_Collar
					{
						OFFSET 0.000000 0.000000 0.000000
						CHANNELS 3 Zrotation Yrotation Xrotation
						JOINT L_Collar
						{
							OFFSET 0.072225 0.116603 -0.009480
							CHANNELS 3 Zrotation Yrotation Xrotation
							JOINT L_Shoulder
							{
								OFFSET 0.115937 -0.058643 -0.021018
								CHANNELS 3 Zrotation Yrotation Xrotation
								JOINT L_Elbow
								{
									OFFSET 0.021994 -0.254722 -0.024492
									CHANNELS 3 Zrotation Yrotation Xrotation
									End Site #name: L_Wrist
									{
										OFFSET 0.048810 -0.240214 0.103329
									}
								}
							}
						}
					}
					JOINT Spine3_R_Collar
					{
						OFFSET 0.000000 0.000000 0.000000
						CHANNELS 3 Zrotation Yrotation Xrotation
						JOINT R_Collar
						{
							OFFSET -0.073372 0.120704 -0.024611
							CHANNELS 3 Zrotation Yrotation Xrotation
							JOINT R_Shoulder
							{
								OFFSET -0.108089 -0.054969 -0.020504
								CHANNELS 3 Zrotation Yrotation Xrotation
								JOINT R_Elbow
								{
									OFFSET -0.033684 -0.260739 0.009889
									CHANNELS 3 Zrotation Yrotation Xrotation
									End Site #name: R_Wrist
									{
										OFFSET -0.067980 -0.232763 0.118463
									}
								}
							}
						}
					}
				}
			}
		}
	}
}
MOTION
Frames: 10
Frame Time: 0.041667
0.000000 0.935135 0.000000 -4.745567 -3.959160 4.183759 0.000000 0.000000 0.000000 1.227025 -1.991752 -8.259421 1.940732 -0.440354 7.218063 2.184124 -6.397637 -7.135674 0.000000 0.000000 0.000000 1.676978 2.043566 -11.593031 -6.054905 1.798577 7.112272 3.500930 16.260025 -2.044674 0.000000 0.000000 0.000000 3.688337 -0.940853 0.938933 -1.386663 0.067109 -2.817112 3.716418 3.249345 1.604749 0.000000 0.000000 0.000000 -5.039039 2.624307 1.563073 0.000000 0.000000 0.000000 16.837657 0.735552 3.816874 -15.283896 0.248879 -5.778635 -7.007020 -3.665151 -2.177229 0.000000 0.000000 0.000000 -19.491357 6.557512 -0.772613 18.820412 1.379180 -2.300647 -2.404715 -0.526765 -2.586316 
0.000096 0.935003 0.000776 -4.731555 -3.987218 4.090688 0.000000 0.000000 0.000000 1.224239 -1.967236 -8.151408 1.898794 -0.437412 7.308296 2.203445 -6.448813 -7.192836 0.000000 0.000000 0.000000 1.668689 2.032280 -11.534236 -6.069890 1.821045 7.265057 3.436464 16.285221 -2.169951 0.000000 0.000000 0.000000 3.831659 -0.967656 0.890743 -1.404232 0.065429 -2.892690 3.730883 3.251676 1.681603 0.000000 0.000000 0.000000 -4.922409 2.564015 1.577585 0.000000 0.000000 0.000000 17.032286 0.712298 3.842424 -15.362762 0.245454 -5.827541 -6.691909 -3.483641 -2.047554 0.000000 0.000000 0.000000 -19.839380 6.692743 -0.821308 18.960288 1.431380 -2.450774 -2.632248 -0.578912 -2.844927 
0.000026 0.935014 0.001570 -4.654293 -3.979513 3.937937 0.000000 0.000000 0.000000 1.146628 -1.956774 -8.106159 1.858422 -0.442547 7.616079 2.294221 -6.513647 -7.377036 0.000000 0.000000 0.000000 1.633674 2.021759 -11.486454 -6.127003 1.872188 7.571227 3.310386 16.266777 -2.384988 0.000000 0.000000 0.000000 3.915325 -0.993697 0.956325 -1.387059 0.058934 -2.969254 3.718148 3.235870 1.683613 0.000000 0.000000 0.000000 -4.745414 2.469039 1.524173 0.000000 0.000000 0.000000 17.114206 0.704977 3.855336 -15.314451 0.247716 -5.803419 -6.497322 -3.299087 -1.708325 0.000000 0.000000 0.000000 -19.972653 6.695581 -0.803466 18.739144 1.432237 -2.501032 -2.609453 -0.516995 -3.031816 
-0.000061 0.935122 0.002223 -4.579637 -3.916666 3.818742 0.000000 0.000000 0.000000 1.053121 -1.955386 -8.101798 1.854759 -0.451809 7.885432 2.388112 -6.559187 -7.554457 0.000000 0.000000 0.000000 1.634595 2.029129 -11.526212 -6.232247 1.946752 7.974143 3.150838 16.195585 -2.636675 0.000000 0.000000 0.000000 3.984534 -1.022493 1.069207 -1.359922 0.049156 -3.081520 3.700969 3.200897 1.687571 0.000000 0.000000 0.000000 -4.621514 2.399725 1.379642 0.000000 0.000000 0.000000 17.097874 0.647405 3.813873 -15.323288 0.274360 -5.688846 -6.407176 -3.147761 -1.308267 0.000000 0.000000 0.000000 -20.090474 6.602622 -0.717605 18.609104 1.400695 -2.423859 -2.544862 -0.477057 -3.049756 
0.000147 0.935133 0.002646 -4.511383 -3.809534 3.789551 0.000000 0.000000 0.000000 0.961652 -1.968131 -8.158484 1.849882 -0.456586 8.029401 2.407591 -6.600261 -7.598606 0.000000 0.000000 0.000000 1.601540 2.041615 -11.602330 -6.295806 1.998151 8.267107 3.043370 16.062520 -2.769619 0.000000 0.000000 0.000000 4.097730 -1.056980 1.136884 -1.337130 0.039707 -3.198486 3.679493 3.161598 1.700235 0.000000 0.000000 0.000000 -4.637471 2.404109 1.239003 0.000000 0.000000 0.000000 17.084166 0.527924 3.732414 -15.522021 0.320161 -5.523761 -6.336820 -3.010411 -0.927351 0.000000 0.000000 0.000000 -20.250201 6.494343 -0.616277 18.601689 1.354165 -2.273718 -2.538459 -0.554171 -2.751135 
0.000624 0.935245 0.002888 -4.439405 -3.669128 3.825455 0.000000 0.000000 0.000000 0.879099 -1.989949 -8.254176 1.805990 -0.451766 8.067831 2.395980 -6.651766 -7.591854 0.000000 0.000000 0.000000 1.511085 2.056685 -11.707319 -6.299411 2.021210 8.448966 2.961578 15.907201 -2.847839 0.000000 0.000000 0.000000 4.275581 -1.106728 1.199282 -1.327797 0.029311 -3.366636 3.634828 3.137743 1.713049 0.000000 0.000000 0.000000 -4.882137 2.526965 1.059581 0.000000 0.000000 0.000000 16.960356 0.479887 3.680549 -15.766283 0.364737 -5.382489 -6.337997 -2.917102 -0.585247 0.000000 0.000000 0.000000 -20.282297 6.341603 -0.504110 18.574304 1.270432 -2.004228 -2.508833 -0.666497 -2.272201 
0.001203 0.935254 0.002946 -4.374897 -3.535074 3.897389 0.000000 0.000000 0.000000 0.811108 -2.016513 -8.372196 1.776529 -0.447431 8.067006 2.386010 -6.751572 -7.609782 0.000000 0.000000 0.000000 1.417119 2.074448 -11.828775 -6.305856 2.037118 8.568752 2.884965 15.759657 -2.920743 0.000000 0.000000 0.000000 4.489259 -1.160975 1.226418 -1.353680 0.025062 -3.505182 3.598392 3.156136 1.751344 0.000000 0.000000 0.000000 -5.357976 2.769418 0.884479 0.000000 0.000000 0.000000 16.834387 0.537420 3.705481 -16.066980 0.382924 -5.371801 -6.439878 -2.934976 -0.480067 0.000000 0.000000 0.000000 -20.253846 6.176090 -0.395690 18.561681 1.171198 -1.682739 -2.453231 -0.781793 -1.733440 
0.001724 0.935306 0.002929 -4.313775 -3.459514 3.985984 0.000000 0.000000 0.000000 0.698209 -2.052422 -8.526997 1.823397 -0.457165 8.122605 2.404123 -6.801357 -7.658746 0.000000 0.000000 0.000000 1.310199 2.094848 -11.968177 -6.290042 2.043674 8.654367 2.833939 15.677083 -2.976264 0.000000 0.000000 0.000000 4.660323 -1.204571 1.246320 -1.396120 0.025701 -3.594737 3.596679 3.242304 1.828174 0.000000 0.000000 0.000000 -5.860327 3.024627 0.721311 0.000000 0.000000 0.000000 16.711891 0.701285 3.807207 -16.326023 0.363822 -5.520055 -6.637153 -3.023466 -0.478755 0.000000 0.000000 0.000000 -20.229231 6.024245 -0.299820 18.624449 1.058312 -1.305307 -2.374864 -0.859374 -1.289222 
0.002040 0.935464 0.003260 -4.301208 -3.393859 4.016703 0.000000 0.000000 0.000000 0.663413 -2.066142 -8.589227 1.830815 -0.460538 8.190206 2.430802 -6.828174 -7.711940 0.000000 0.000000 0.000000 1.268857 2.086542 -11.935041 -6.266336 2.029174 8.588031 2.803622 15.609884 -3.001560 0.000000 0.000000 0.000000 4.787769 -1.239587 1.282456 -1.423987 0.028011 -3.617152 3.609735 3.353533 1.877962 0.000000 0.000000 0.000000 -6.156233 3.174119 0.637840 0.000000 0.000000 0.000000 16.554840 0.849622 3.891492 -16.476061 0.337935 -5.657261 -6.831653 -3.171500 -0.705173 0.000000 0.000000 0.000000 -20.268697 5.957632 -0.262018 18.792067 0.916226 -0.814082 -2.269346 -0.894910 -0.954295 
0.002286 0.935699 0.003912 -4.323645 -3.320336 3.972493 0.000000 0.000000 0.000000 0.672954 -2.045162 -8.495077 1.825654 -0.459737 8.165440 2.441768 -6.894489 -7.754401 0.000000 0.000000 0.000000 1.283066 2.043401 -11.698243 -6.251896 2.000704 8.393461 2.759816 15.546108 -3.052794 0.000000 0.000000 0.000000 4.878650 -1.267507 1.334395 -1.427163 0.032835 -3.534780 3.607870 3.428567 1.837193 0.000000 0.000000 0.000000 -6.285200 3.244264 0.753936 0.000000 0.000000 0.000000 16.407140 0.924618 3.923002 -16.490286 0.338072 -5.646874 -6.999830 -3.355872 -1.089794 0.000000 0.000000 0.000000 -20.305541 5.983211 -0.292878 18.926784 0.770693 -0.311905 -2.065596 -0.863554 -0.680389 
